<svg width="306" height="306" viewBox="0 0 306 306" fill="none" xmlns="http://www.w3.org/2000/svg">
<path d="M126.697 0H89.4575L84.9022 21.1869H89.4575V145.936H111.587V103.531H126.67C129.061 103.534 131.428 103.066 133.637 102.152C135.846 101.238 137.854 99.897 139.546 98.2054C141.237 96.5137 142.579 94.5046 143.494 92.293C144.41 90.0814 144.881 87.7108 144.881 85.3167V18.2195C144.882 15.8271 144.412 13.458 143.498 11.2476C142.585 9.03713 141.246 7.02857 139.557 5.33669C137.868 3.64478 135.863 2.30266 133.657 1.38698C131.45 0.471298 129.085 -1.01971e-07 126.697 0ZM122.757 82.3544H111.608V21.1975H122.757V82.3544ZM169.23 0H219.556V21.1869H191.359V62.3748H211.189V83.5616H191.359V124.75H219.556V145.936H169.23V21.1869H164.674L169.23 0ZM288.997 78.0682L305.454 145.936H282.928L271.847 99.9785L261.622 145.931H238.261L254.72 78.0628V67.8682L243.379 21.1816H238.829L243.379 0H260.767L271.847 45.9528L282.068 0H305.429L288.97 67.8682L288.997 78.0682ZM53.5349 0H23.0225L12.1703 103.568H9.90858V104.031L5.4541 124.75H9.95106L7.73178 145.936H27.5088L29.3459 124.75H47.2222L49.0486 145.936H68.831L53.5349 0ZM31.1671 103.568L38.2813 21.1869L45.3904 103.568H31.1671ZM59.407 180.487V185.173H8.73525L7.73178 180.487H59.407ZM305.449 180.487L304.441 185.173H253.773V180.487H305.449ZM100.395 164.183H112.463V168.873H105.077V180.493H110.578V185.183H105.077V195.973H112.463V200.664H100.395V164.183ZM83.2615 195.973H90.6521V200.664H78.5788V164.183H83.2615V195.973ZM136.827 167.31V172.542L132.144 173.553V168.873H128.189V195.995H132.144V185.183H129.691L130.7 180.493H136.822V197.59C136.808 198.41 136.473 199.192 135.889 199.767C135.305 200.342 134.519 200.664 133.7 200.664H126.628C125.812 200.655 125.032 200.329 124.451 199.756C123.87 199.183 123.533 198.407 123.511 197.59V167.31C123.527 166.486 123.861 165.701 124.442 165.118C125.022 164.536 125.806 164.2 126.628 164.183H133.705C134.533 164.184 135.326 164.514 135.911 165.1C136.496 165.686 136.826 166.481 136.827 167.31ZM147.875 164.183H159.954V168.873H152.553V180.493H158.053V185.183H152.553V195.973H159.954V200.664H147.875V164.183ZM181.186 164.183H185.869V200.664H181.881L175.67 180.493V200.664H170.987V164.183H175.186L181.191 185.183L181.186 164.183ZM207.111 164.183H196.912V200.664H207.111C207.93 200.664 208.716 200.342 209.3 199.767C209.884 199.192 210.219 198.41 210.233 197.59V167.31C210.23 166.481 209.9 165.687 209.316 165.101C208.731 164.516 207.938 164.185 207.111 164.183ZM205.55 195.973H201.595V168.852H205.55V195.973ZM234.597 183.62V197.59C234.583 198.41 234.248 199.192 233.664 199.767C233.08 200.342 232.294 200.664 231.476 200.664H224.398C223.584 200.648 222.807 200.321 222.227 199.749C221.646 199.178 221.306 198.405 221.276 197.59V192.038L225.959 191.028V195.973H229.915V185.183H224.398C223.579 185.185 222.792 184.863 222.208 184.288C221.624 183.713 221.289 182.93 221.276 182.109V167.31C221.256 166.894 221.323 166.478 221.472 166.089C221.622 165.7 221.851 165.347 222.145 165.053C222.439 164.758 222.791 164.529 223.18 164.379C223.568 164.229 223.983 164.162 224.398 164.183H231.476C231.884 164.17 232.292 164.24 232.673 164.389C233.054 164.538 233.401 164.763 233.693 165.051C233.984 165.338 234.215 165.681 234.371 166.061C234.526 166.44 234.603 166.847 234.597 167.256V172.542L229.915 173.553V168.873H225.959V180.493H231.476C232.303 180.496 233.095 180.826 233.68 181.412C234.265 181.998 234.595 182.791 234.597 183.62ZM241.186 164.783H240.124V164.183H242.901V164.783H241.839V168.873H241.186V164.783ZM245.688 168.873V166.336L245.195 167.868H244.706L244.25 166.336V168.873H243.628V164.183H244.228L244.945 166.528L245.688 164.183H246.294V168.873H245.688ZM294.41 218.671H16.5027L9.60064 234.556L36.6196 296.298H274.029L301.281 234.492L294.41 218.671Z" fill="white"/>
<path d="M86.7964 242.57L76.1195 260.673H75.6948L65.0177 242.57H63.8603H60.7279H54.4311H53.3851L51.8721 249.601H54.4311V272.387H63.0109V256.199H63.4356L73.2844 272.387H74.4206H77.3937H78.5353L88.3787 256.199H88.8086V272.387H94.84H97.3832V242.57H87.954H86.7964Z" fill="black"/>
<path d="M130.306 242.144H111.108C106.43 242.144 103.882 244.701 103.882 249.386V265.569C103.882 270.255 106.43 272.813 111.108 272.813H130.317C134.994 272.813 137.543 270.255 137.543 265.569V249.413C137.532 244.701 135 242.144 130.306 242.144ZM129.457 264.08C129.473 264.309 129.439 264.537 129.359 264.751C129.279 264.966 129.154 265.159 128.992 265.322C128.831 265.482 128.636 265.606 128.422 265.687C128.208 265.766 127.98 265.798 127.752 265.781H113.651C113.423 265.798 113.195 265.766 112.981 265.687C112.767 265.606 112.573 265.482 112.411 265.322C112.25 265.159 112.124 264.966 112.044 264.751C111.964 264.537 111.931 264.309 111.947 264.08V250.875C111.931 250.648 111.964 250.418 112.044 250.206C112.124 249.991 112.25 249.796 112.411 249.635C112.573 249.475 112.767 249.349 112.981 249.27C113.195 249.191 113.423 249.156 113.651 249.174H127.752C127.98 249.156 128.208 249.191 128.422 249.27C128.636 249.349 128.831 249.475 128.992 249.635C129.154 249.796 129.279 249.991 129.359 250.206C129.439 250.418 129.473 250.648 129.457 250.875V264.08Z" fill="black"/>
<path d="M171.735 257.142V256.715C172.586 256.392 173.313 255.804 173.809 255.041C174.305 254.275 174.546 253.372 174.496 252.461V249.801C174.496 245.117 171.947 242.559 167.264 242.559H142.964L141.456 249.589H144.026V272.387H168.979C173.657 272.387 176.21 270.345 176.21 265.661V262.678C176.2 257.992 171.735 257.142 171.735 257.142ZM152.09 249.599H164.732C164.96 249.579 165.191 249.609 165.406 249.685C165.622 249.764 165.818 249.888 165.98 250.051C166.143 250.214 166.267 250.409 166.345 250.626C166.423 250.843 166.452 251.073 166.431 251.303V252.456C166.452 252.685 166.423 252.915 166.345 253.132C166.267 253.347 166.143 253.545 165.98 253.708C165.818 253.868 165.622 253.994 165.406 254.071C165.191 254.15 164.96 254.179 164.732 254.157H152.101L152.09 249.599ZM168.109 263.91C168.109 264.974 167.471 265.357 166.404 265.357H152.069V260.762H166.404C167.466 260.762 168.109 261.145 168.109 262.209V263.91Z" fill="black"/>
<path d="M181.622 242.57V272.387H189.703V242.57H181.622Z" fill="black"/>
<path d="M204.476 242.57H196.396V272.387H225.257V265.357H204.476V242.57Z" fill="black"/>
<path d="M259.881 265.357H237.481V260.673H255.627V253.648H237.481V249.601H259.45V242.57H229.405H228.354L226.841 249.601H229.405V272.387H259.881V265.357Z" fill="black"/>
</svg>
